<svg width="24" height="24" viewBox="0 0 24 24" fill="none" xmlns="http://www.w3.org/2000/svg">
<g clip-path="url(#clip0_242_392)">
<path d="M23.5909 21.6136L13.9091 12L23.5909 2.38636C24.1364 1.84091 24.1364 0.954546 23.5909 0.477273C23.0455 2.84477e-07 22.1591 -0.0681816 21.6818 0.477273L12 10.0909L2.38636 0.409091C1.84091 -0.136364 0.954546 -0.136364 0.477273 0.409091C2.84477e-07 0.954545 -0.0681816 1.84091 0.477273 2.31818L10.0909 12L0.409091 21.6136C-0.136364 22.1591 -0.136364 23.0455 0.409091 23.5227C0.954545 24 1.84091 24.0682 2.31818 23.5227L12 13.9091L21.6136 23.5909C22.1591 24.1364 23.0455 24.1364 23.5227 23.5909C24 23.0455 24.0682 22.1591 23.5909 21.6136Z" fill="#FAFAFA"/>
</g>
<defs>
<clipPath id="clip0_242_392">
<rect width="24" height="24" fill="white"/>
</clipPath>
</defs>
</svg>
